<?xml version="1.0" encoding="utf-8"?>
<!-- Generator: Adobe Illustrator 15.0.2, SVG Export Plug-In . SVG Version: 6.00 Build 0)  -->
<!DOCTYPE svg PUBLIC "-//W3C//DTD SVG 1.1//EN" "http://www.w3.org/Graphics/SVG/1.1/DTD/svg11.dtd">
<svg version="1.1" id="Calque_1" xmlns="http://www.w3.org/2000/svg" xmlns:xlink="http://www.w3.org/1999/xlink" x="0px" y="0px"
	 width="24px" height="24px" viewBox="0 0 24 24" enable-background="new 0 0 24 24" xml:space="preserve">
<g>
	<g>
		<circle fill="#C73D3D" cx="12" cy="12" r="8"/>
	</g>
	<g>
		
			<radialGradient id="SVGID_1_" cx="-1813.9604" cy="1470.9326" r="7.4981" gradientTransform="matrix(-4.371139e-008 -1 1.5 -6.556708e-008 -2194.3987 -1801.9604)" gradientUnits="userSpaceOnUse">
			<stop  offset="0" style="stop-color:#D43939"/>
			<stop  offset="0.3586" style="stop-color:#D53B3B"/>
			<stop  offset="0.5227" style="stop-color:#D64343"/>
			<stop  offset="0.6472" style="stop-color:#D94F4F"/>
			<stop  offset="0.7518" style="stop-color:#DE6161"/>
			<stop  offset="0.8437" style="stop-color:#E47979"/>
			<stop  offset="0.9256" style="stop-color:#EB9696"/>
			<stop  offset="1" style="stop-color:#F3B7B7"/>
		</radialGradient>
		<circle fill="url(#SVGID_1_)" cx="12" cy="12" r="7.5"/>
	</g>
	<g>
		<g>
			<path fill="#C73D3D" d="M16.813,12.377c0,0.275-0.225,0.5-0.5,0.5H7.688c-0.275,0-0.5-0.225-0.5-0.5v-0.75
				c0-0.275,0.225-0.5,0.5-0.5h8.625c0.275,0,0.5,0.225,0.5,0.5V12.377z"/>
		</g>
		<path opacity="0.2" enable-background="new    " d="M17.313,11.625c0-0.55-0.446-0.999-1-0.999H9.625H7.688
			c-0.549,0.002-1,0.451-1,1v0.749c0,0.551,0.451,1,1,1h1.938h6.688c0.552,0,1-0.449,1-1L17.313,11.625z M16.813,12.377
			c0,0.275-0.225,0.5-0.5,0.5h-1.938h-1.5l0,0H9.623H7.688c-0.271,0-0.502-0.23-0.5-0.5l-0.002-0.75c0-0.271,0.229-0.5,0.5-0.5
			h1.938v0.001h3.25h1.502h1.938c0.271,0,0.498,0.226,0.498,0.5V12.377L16.813,12.377z"/>
		<g opacity="0.45">
			<path fill="#FFFFFE" d="M16.314,10.125h-1.44l-5.748-0.001H7.688c-0.828,0-1.502,0.673-1.5,1.5v0.749
				c0,0.828,0.674,1.501,1.5,1.5l1.438,0.002l5.748-0.002l1.44,0.002c0.826,0,1.498-0.672,1.498-1.5v-0.75
				C17.813,10.798,17.143,10.125,16.314,10.125z M16.313,13.373h-1.938l0,0h-4.75H7.688c-0.549,0-1-0.449-1-1v-0.749
				c0-0.55,0.451-1,1-1h1.938h4.75h1.938c0.554,0,1,0.449,1,0.999l0.002,0.751C17.313,12.924,16.863,13.373,16.313,13.373z"/>
		</g>
	</g>
</g>
</svg>
