<?xml version="1.0" encoding="utf-8"?>
<!-- Generator: Adobe Illustrator 15.0.2, SVG Export Plug-In . SVG Version: 6.00 Build 0)  -->
<!DOCTYPE svg PUBLIC "-//W3C//DTD SVG 1.1//EN" "http://www.w3.org/Graphics/SVG/1.1/DTD/svg11.dtd">
<svg version="1.1" id="Calque_1" xmlns="http://www.w3.org/2000/svg" xmlns:xlink="http://www.w3.org/1999/xlink" x="0px" y="0px"
	 width="120px" height="24px" viewBox="-24 0 120 24" enable-background="new -24 0 120 24" xml:space="preserve">
<path fill="#2D2D2D" d="M11.99,4C7.48,4,7.698,9.569,7.698,9.569s-0.626-0.082-0.626,0.842s0.653,0.924,0.653,0.924
	c0,0.951,1.819,2.526,1.819,2.526v0.543C5.661,14.402,4.601,20,4.601,20h14.797c0,0-1.06-5.598-4.943-5.598v-0.543
	c0,0,1.82-1.574,1.82-2.525c0,0,0.651,0,0.651-0.924c0-0.923-0.625-0.842-0.625-0.842S16.519,4,12.01,4H11.99z"/>
<path fill="#2D2D2D" d="M-12.01,4c-4.51,0-4.292,5.569-4.292,5.569s-0.626-0.082-0.626,0.842s0.653,0.924,0.653,0.924
	c0,0.951,1.819,2.526,1.819,2.526v0.543C-18.339,14.402-19.399,20-19.399,20h14.797c0,0-1.06-5.598-4.943-5.598v-0.543
	c0,0,1.82-1.574,1.82-2.525c0,0,0.651,0,0.651-0.924c0-0.923-0.625-0.842-0.625-0.842S-7.481,4-11.99,4H-12.01z"/>
<path opacity="0.5" fill="#2D2D2D" enable-background="new    " d="M35.99,4c-4.51,0-4.292,5.569-4.292,5.569
	s-0.626-0.082-0.626,0.842s0.653,0.924,0.653,0.924c0,0.951,1.819,2.526,1.819,2.526v0.543C29.661,14.402,28.601,20,28.601,20
	h14.797c0,0-1.06-5.598-4.943-5.598v-0.543c0,0,1.82-1.574,1.82-2.525c0,0,0.651,0,0.651-0.924c0-0.923-0.625-0.842-0.625-0.842
	S40.519,4,36.01,4H35.99z"/>
<path opacity="0.5" fill="#2D2D2D" enable-background="new    " d="M59.99,4c-4.51,0-4.293,5.569-4.293,5.569
	s-0.625-0.082-0.625,0.842s0.652,0.924,0.652,0.924c0,0.951,1.819,2.526,1.819,2.526v0.543C53.66,14.402,52.602,20,52.602,20h14.797
	c0,0-1.061-5.598-4.942-5.598v-0.543c0,0,1.819-1.574,1.819-2.525c0,0,0.65,0,0.65-0.924c0-0.923-0.625-0.842-0.625-0.842
	S64.52,4,60.01,4H59.99z"/>
<path opacity="0.5" fill="#2D2D2D" enable-background="new    " d="M83.99,4c-4.51,0-4.293,5.569-4.293,5.569
	s-0.625-0.082-0.625,0.842s0.652,0.924,0.652,0.924c0,0.951,1.819,2.526,1.819,2.526v0.543C77.66,14.402,76.602,20,76.602,20h14.797
	c0,0-1.061-5.598-4.942-5.598v-0.543c0,0,1.819-1.574,1.819-2.525c0,0,0.65,0,0.65-0.924c0-0.923-0.625-0.842-0.625-0.842
	S88.52,4,84.01,4H83.99z"/>
</svg>
