<?xml version="1.0" encoding="utf-8"?>
<!-- Generator: Adobe Illustrator 15.0.2, SVG Export Plug-In . SVG Version: 6.00 Build 0)  -->
<!DOCTYPE svg PUBLIC "-//W3C//DTD SVG 1.1//EN" "http://www.w3.org/Graphics/SVG/1.1/DTD/svg11.dtd">
<svg version="1.1" id="Calque_1" xmlns="http://www.w3.org/2000/svg" xmlns:xlink="http://www.w3.org/1999/xlink" x="0px" y="0px"
	 width="120px" height="24px" viewBox="-24 0 120 24" enable-background="new -24 0 120 24" xml:space="preserve">
<g>
	<path fill="#2D2D2D" d="M21.125,11.988l-8.616-7.855C12.379,4.014,12.195,3.986,12,4.008c-0.196-0.021-0.379,0.006-0.511,0.125
		l-8.615,7.855c-0.311,0.284-0.227,0.881,0.188,1.333c0.415,0.454,1.002,0.597,1.312,0.312l7.625-6.951l7.625,6.952
		c0.311,0.284,0.898,0.146,1.313-0.308C21.352,12.87,21.436,12.272,21.125,11.988z"/>
	<path fill="#2D2D2D" d="M12.306,7.843c-0.15-0.132-0.398-0.134-0.549-0.002l-5.74,4.991c-0.151,0.132-0.275,0.403-0.275,0.604
		v6.195c0,0.202,0.164,0.367,0.365,0.367H9.79c0.2,0,0.365-0.165,0.365-0.367v-4.773c0-0.202,0.164-0.365,0.365-0.365h2.954
		c0.202,0,0.366,0.163,0.366,0.365v4.773c0,0.202,0.164,0.367,0.365,0.367h3.646c0.2,0,0.364-0.165,0.364-0.367v-6.195
		c0-0.203-0.12-0.475-0.274-0.604L12.306,7.843z"/>
	<path fill="#2D2D2D" d="M17.942,8.377c0.147,0.135,0.271,0.082,0.271-0.119V5.377c0-0.2-0.164-0.365-0.364-0.365h-2.15
		c-0.203,0-0.367,0.164-0.367,0.365v0.255c0,0.201,0.121,0.475,0.271,0.61L17.942,8.377z"/>
</g>
<g>
	<path fill="#2D2D2D" d="M-2.875,11.988l-8.616-7.855c-0.13-0.119-0.314-0.146-0.509-0.125c-0.196-0.021-0.379,0.006-0.511,0.125
		l-8.615,7.855c-0.311,0.284-0.227,0.881,0.188,1.333c0.415,0.454,1.002,0.597,1.312,0.312l7.625-6.951l7.625,6.952
		c0.311,0.284,0.898,0.146,1.313-0.308C-2.648,12.87-2.564,12.272-2.875,11.988z"/>
	<path fill="#2D2D2D" d="M-11.694,7.843c-0.15-0.132-0.398-0.134-0.549-0.002l-5.74,4.991c-0.151,0.132-0.275,0.403-0.275,0.604
		v6.195c0,0.202,0.164,0.367,0.365,0.367h3.683c0.2,0,0.365-0.165,0.365-0.367v-4.773c0-0.202,0.164-0.365,0.365-0.365h2.954
		c0.202,0,0.366,0.163,0.366,0.365v4.773c0,0.202,0.164,0.367,0.365,0.367h3.646c0.2,0,0.364-0.165,0.364-0.367v-6.195
		c0-0.203-0.12-0.475-0.274-0.604L-11.694,7.843z"/>
	<path fill="#2D2D2D" d="M-6.058,8.377c0.147,0.135,0.271,0.082,0.271-0.119V5.377c0-0.2-0.164-0.365-0.364-0.365h-2.15
		c-0.203,0-0.367,0.164-0.367,0.365v0.255c0,0.201,0.121,0.475,0.271,0.61L-6.058,8.377z"/>
</g>
<g opacity="0.5">
	<path fill="#2D2D2D" d="M45.125,11.988l-8.616-7.855C36.379,4.014,36.195,3.986,36,4.008c-0.196-0.021-0.379,0.006-0.511,0.125
		l-8.615,7.855c-0.311,0.284-0.227,0.881,0.188,1.333c0.415,0.454,1.002,0.597,1.312,0.312l7.625-6.951l7.625,6.952
		c0.311,0.284,0.898,0.146,1.313-0.308C45.353,12.87,45.437,12.272,45.125,11.988z"/>
	<path fill="#2D2D2D" d="M36.306,7.843c-0.15-0.132-0.398-0.134-0.549-0.002l-5.74,4.991c-0.151,0.132-0.275,0.403-0.275,0.604
		v6.195c0,0.202,0.164,0.367,0.365,0.367h3.683c0.2,0,0.365-0.165,0.365-0.367v-4.773c0-0.202,0.164-0.365,0.365-0.365h2.954
		c0.202,0,0.366,0.163,0.366,0.365v4.773c0,0.202,0.164,0.367,0.365,0.367h3.646c0.201,0,0.365-0.165,0.365-0.367v-6.195
		c0-0.203-0.121-0.475-0.274-0.604L36.306,7.843z"/>
	<path fill="#2D2D2D" d="M41.942,8.377c0.146,0.135,0.271,0.082,0.271-0.119V5.377c0-0.2-0.164-0.365-0.365-0.365h-2.149
		c-0.203,0-0.367,0.164-0.367,0.365v0.255c0,0.201,0.121,0.475,0.271,0.61L41.942,8.377z"/>
</g>
<g opacity="0.5">
	<path fill="#2D2D2D" d="M69.125,11.988l-8.616-7.855C60.38,4.014,60.195,3.986,60,4.008c-0.195-0.021-0.379,0.006-0.512,0.125
		l-8.614,7.855c-0.312,0.284-0.228,0.881,0.188,1.333c0.416,0.454,1.002,0.597,1.313,0.312L60,6.682l7.625,6.952
		c0.311,0.284,0.898,0.146,1.313-0.308C69.354,12.87,69.438,12.272,69.125,11.988z"/>
	<path fill="#2D2D2D" d="M60.307,7.843c-0.149-0.132-0.397-0.134-0.55-0.002l-5.739,4.991c-0.15,0.132-0.274,0.403-0.274,0.604
		v6.195c0,0.202,0.164,0.367,0.364,0.367h3.684c0.2,0,0.365-0.165,0.365-0.367v-4.773c0-0.202,0.164-0.365,0.365-0.365h2.953
		c0.2,0,0.364,0.163,0.364,0.365v4.773c0,0.202,0.164,0.367,0.365,0.367h3.646c0.199,0,0.363-0.165,0.363-0.367v-6.195
		c0-0.203-0.119-0.475-0.273-0.604L60.307,7.843z"/>
	<path fill="#2D2D2D" d="M65.941,8.377c0.146,0.135,0.271,0.082,0.271-0.119V5.377c0-0.2-0.164-0.365-0.365-0.365h-2.148
		c-0.203,0-0.367,0.164-0.367,0.365v0.255c0,0.201,0.121,0.475,0.271,0.61L65.941,8.377z"/>
</g>
<g opacity="0.5">
	<path fill="#2D2D2D" d="M93.126,11.988l-8.614-7.855c-0.132-0.119-0.314-0.146-0.511-0.125c-0.194-0.021-0.379,0.006-0.511,0.125
		l-8.615,7.855c-0.313,0.284-0.227,0.881,0.188,1.333c0.416,0.454,1.002,0.597,1.313,0.312l7.625-6.951l7.625,6.952
		c0.312,0.284,0.897,0.146,1.313-0.308C93.354,12.87,93.438,12.272,93.126,11.988z"/>
	<path fill="#2D2D2D" d="M84.307,7.843c-0.148-0.132-0.396-0.134-0.55-0.002l-5.739,4.991c-0.149,0.132-0.273,0.403-0.273,0.604
		v6.195c0,0.202,0.164,0.367,0.363,0.367h3.685c0.2,0,0.365-0.165,0.365-0.367v-4.773c0-0.202,0.163-0.365,0.364-0.365h2.953
		c0.202,0,0.366,0.163,0.366,0.365v4.773c0,0.202,0.164,0.367,0.364,0.367h3.646c0.2,0,0.364-0.165,0.364-0.367v-6.195
		c0-0.203-0.12-0.475-0.274-0.604L84.307,7.843z"/>
	<path fill="#2D2D2D" d="M89.943,8.377c0.146,0.135,0.271,0.082,0.271-0.119V5.377c0-0.2-0.164-0.365-0.362-0.365H87.7
		c-0.203,0-0.367,0.164-0.367,0.365v0.255c0,0.201,0.121,0.475,0.271,0.61L89.943,8.377z"/>
</g>
</svg>
