<?xml version="1.0" encoding="utf-8"?>
<!-- Generator: Adobe Illustrator 15.0.0, SVG Export Plug-In . SVG Version: 6.00 Build 0)  -->
<!DOCTYPE svg PUBLIC "-//W3C//DTD SVG 1.1//EN" "http://www.w3.org/Graphics/SVG/1.1/DTD/svg11.dtd">
<svg version="1.1" id="Calque_1" xmlns="http://www.w3.org/2000/svg" xmlns:xlink="http://www.w3.org/1999/xlink" x="0px" y="0px"
	 width="80px" height="24px" viewBox="0 0 80 24" enable-background="new 0 0 80 24" xml:space="preserve">
<g>
	<path fill="#D3117E" d="M80,23c0,0.55-0.45,1-1,1H2c-0.55,0-1-0.45-1-1V2c0-0.55,0.45-1,1-1h77c0.55,0,1,0.45,1,1V23z"/>
</g>
<g>
	<path fill="#EEEBE8" d="M79,22c0,0.55-0.45,1-1,1H1c-0.55,0-1-0.45-1-1V1c0-0.55,0.45-1,1-1h77c0.55,0,1,0.45,1,1V22z"/>
</g>
<g>
	<path fill="#FFFFFF" d="M78.5,21.5c0,0.55-0.45,1-1,1h-76c-0.55,0-1-0.45-1-1v-20c0-0.55,0.45-1,1-1h76c0.55,0,1,0.45,1,1V21.5z"/>
</g>
<g>
	
		<linearGradient id="SVGID_1_" gradientUnits="userSpaceOnUse" x1="1182.3799" y1="-831.7988" x2="1182.3799" y2="-852.7988" gradientTransform="matrix(1 0 0 -1 -1142.8799 -830.7988)">
		<stop  offset="0" style="stop-color:#E8C6B0"/>
		<stop  offset="1" style="stop-color:#EEEBE8"/>
	</linearGradient>
	<path fill="url(#SVGID_1_)" d="M78,21c0,0.55-0.45,1-1,1H2c-0.55,0-1-0.45-1-1V2c0-0.55,0.45-1,1-1h75c0.55,0,1,0.45,1,1V21z"/>
</g>
<g opacity="0.06">
	<path fill="#FFFFFE" d="M1,11.5V2c0-0.55,0.45-1,1-1h75c0.551,0,1,0.45,1,1v9.5"/>
</g>
</svg>
