<?xml version="1.0" encoding="utf-8"?>
<!-- Generator: Adobe Illustrator 15.0.2, SVG Export Plug-In . SVG Version: 6.00 Build 0)  -->
<!DOCTYPE svg PUBLIC "-//W3C//DTD SVG 1.1//EN" "http://www.w3.org/Graphics/SVG/1.1/DTD/svg11.dtd">
<svg version="1.1" id="Calque_1" xmlns="http://www.w3.org/2000/svg" xmlns:xlink="http://www.w3.org/1999/xlink" x="0px" y="0px"
	 width="92px" height="56px" viewBox="0 0 92 56" enable-background="new 0 0 92 56" xml:space="preserve">
<g>
	
		<linearGradient id="SVGID_1_" gradientUnits="userSpaceOnUse" x1="3271.4795" y1="-2983.4941" x2="3271.4795" y2="-2942.8613" gradientTransform="matrix(1 0 0 -1 -3225.4795 -2935.1777)">
		<stop  offset="0" style="stop-color:#E8C6B0"/>
		<stop  offset="1" style="stop-color:#EEEBE8"/>
	</linearGradient>
	<circle fill="url(#SVGID_1_)" cx="46" cy="28" r="20.316"/>
	<path fill="#E8C6B0" d="M46,8.191c10.922,0,19.809,8.886,19.809,19.809c0,10.923-8.886,19.809-19.809,19.809
		c-10.922,0-19.809-8.886-19.809-19.809C26.191,17.078,35.078,8.191,46,8.191 M46,7.684c-11.22,0-20.316,9.096-20.316,20.316
		c0,11.22,9.097,20.316,20.316,20.316S66.316,39.22,66.316,28C66.316,16.779,57.22,7.684,46,7.684L46,7.684z"/>
</g>
<g>
	<path d="M45.589,15.862c-1.005,0-1.829,0.695-2.012,1.646h-0.053l-6.604,7.434h3.303l4.568-5.136
		c0.246,0.104,0.516,0.182,0.798,0.182c0.285,0,0.55-0.078,0.8-0.182l4.564,5.136h3.305l-6.606-7.435h-0.054
		C47.42,16.557,46.596,15.862,45.589,15.862L45.589,15.862z M33.621,25.494c-0.917,0-1.655,0.737-1.655,1.653v0.826
		c0,0.87,0.669,1.555,1.525,1.625l2.604,9.105c0.825,1.653,1.651,1.653,2.475,1.653h14.861c0.829,0,1.649,0,2.476-1.653l2.608-9.105
		c0.853-0.07,1.52-0.756,1.52-1.625v-0.825c0-0.916-0.732-1.653-1.647-1.653L33.621,25.494L33.621,25.494z M38.266,29.623h0.41
		c0.916,0,1.819,0.689,2.011,1.548l1.162,5.138c0.192,0.858-0.4,1.569-1.314,1.569h-0.416c-0.916,0-1.819-0.709-2.011-1.569
		l-1.161-5.138C36.752,30.314,37.348,29.623,38.266,29.623L38.266,29.623z M46.002,29.623c0.915,0,1.65,0.737,1.65,1.654v4.953
		c0,0.914-0.735,1.647-1.65,1.647s-1.652-0.734-1.652-1.647v-4.953C44.351,30.36,45.088,29.623,46.002,29.623L46.002,29.623z
		 M53.329,29.623h0.413c0.915,0,1.508,0.689,1.313,1.548l-1.159,5.138c-0.195,0.858-1.096,1.569-2.014,1.569H51.47
		c-0.915,0-1.508-0.709-1.313-1.569l1.16-5.138C51.51,30.314,52.414,29.623,53.329,29.623L53.329,29.623z"/>
	<path fill="#FFFFFE" d="M45.589,15.642c-1.005,0-1.829,0.696-2.012,1.647h-0.053l-6.604,7.432h3.303l4.568-5.135
		c0.246,0.104,0.516,0.181,0.798,0.181c0.285,0,0.55-0.078,0.8-0.181l4.564,5.135h3.305l-6.606-7.432h-0.054
		C47.42,16.339,46.596,15.642,45.589,15.642L45.589,15.642z M33.621,25.276c-0.917,0-1.655,0.737-1.655,1.653v0.826
		c0,0.87,0.669,1.555,1.525,1.625l2.604,9.105c0.825,1.65,1.651,1.65,2.475,1.65h14.861c0.829,0,1.649,0,2.476-1.65l2.608-9.105
		c0.853-0.072,1.52-0.756,1.52-1.625v-0.826c0-0.916-0.732-1.653-1.647-1.653H33.621L33.621,25.276z M38.266,29.404h0.41
		c0.916,0,1.819,0.688,2.011,1.547l1.161,5.137c0.193,0.861-0.399,1.572-1.314,1.572h-0.416c-0.916,0-1.819-0.711-2.011-1.572
		l-1.161-5.137C36.752,30.095,37.348,29.404,38.266,29.404L38.266,29.404z M46.002,29.404c0.915,0,1.65,0.736,1.65,1.653v4.954
		c0,0.915-0.735,1.648-1.65,1.648s-1.652-0.736-1.652-1.648v-4.954C44.351,30.139,45.088,29.404,46.002,29.404L46.002,29.404z
		 M53.329,29.404h0.413c0.915,0,1.508,0.688,1.313,1.547l-1.159,5.137c-0.195,0.861-1.096,1.572-2.014,1.572H51.47
		c-0.915,0-1.508-0.711-1.313-1.572l1.16-5.137C51.51,30.095,52.414,29.404,53.329,29.404L53.329,29.404z"/>
</g>
</svg>
