<?xml version="1.0" encoding="utf-8"?>
<!-- Generator: Adobe Illustrator 15.0.2, SVG Export Plug-In . SVG Version: 6.00 Build 0)  -->
<!DOCTYPE svg PUBLIC "-//W3C//DTD SVG 1.1//EN" "http://www.w3.org/Graphics/SVG/1.1/DTD/svg11.dtd">
<svg version="1.1" id="Calque_1" xmlns="http://www.w3.org/2000/svg" xmlns:xlink="http://www.w3.org/1999/xlink" x="0px" y="0px"
	 width="36px" height="48px" viewBox="6 -6 36 48" enable-background="new 6 -6 36 48" xml:space="preserve">
<g>
	<path fill="#42608C" d="M21,1v34c0,1.657,1.343,3,3,3c1.656,0,3-1.343,3-3V1c0-1.656-1.344-3-3-3C22.343-2,21-0.656,21,1z"/>
	<path opacity="0.35" enable-background="new    " d="M24-2c1.656,0,2,1.344,2,3v34c0,1.657-0.344,3-2,3c1.656,0,3-1.343,3-3V1
		C27-0.656,25.656-2,24-2z"/>
	<path opacity="0.5" fill="#FFFFFE" enable-background="new    " d="M21,1v34c0,1.657,1.344,3,3,3c-1.656,0-2-1.343-2-3V1
		c0-1.656,0.344-3,2-3C22.344-2,21-0.656,21,1z"/>
</g>
</svg>
