<?xml version="1.0" encoding="utf-8"?>
<!-- Generator: Adobe Illustrator 15.0.0, SVG Export Plug-In . SVG Version: 6.00 Build 0)  -->
<!DOCTYPE svg PUBLIC "-//W3C//DTD SVG 1.1//EN" "http://www.w3.org/Graphics/SVG/1.1/DTD/svg11.dtd">
<svg version="1.1" id="Calque_1" xmlns="http://www.w3.org/2000/svg" xmlns:xlink="http://www.w3.org/1999/xlink" x="0px" y="0px"
	 width="36px" height="36px" viewBox="0 0 36 36" enable-background="new 0 0 36 36" xml:space="preserve">
<g>
	
		<linearGradient id="SVGID_1_" gradientUnits="userSpaceOnUse" x1="4124.1992" y1="-3037.457" x2="4124.1992" y2="-3011.457" gradientTransform="matrix(1 0 0 -1 -4106.1992 -3006.457)">
		<stop  offset="0" style="stop-color:#E8C6B0"/>
		<stop  offset="1" style="stop-color:#EEEBE8"/>
	</linearGradient>
	<circle fill="url(#SVGID_1_)" cx="18" cy="18" r="13"/>
	<path fill="#E8C6B0" d="M18,5.326c6.988,0,12.675,5.686,12.675,12.674c0,6.988-5.687,12.673-12.675,12.673
		c-6.989,0-12.674-5.685-12.674-12.673C5.326,11.011,11.011,5.326,18,5.326 M18,5C10.821,5,5,10.82,5,18c0,7.18,5.821,13,13,13
		c7.18,0,13-5.82,13-13C31,10.82,25.18,5,18,5L18,5z"/>
</g>
<g>
	<polygon points="13.9,18.324 20.425,21.925 20.425,14.724 	"/>
	<polygon fill="#FFFFFE" points="13.575,17.675 20.102,21.273 20.102,14.075 	"/>
</g>
</svg>
