<?xml version="1.0" encoding="utf-8"?>
<!-- Generator: Adobe Illustrator 15.0.2, SVG Export Plug-In . SVG Version: 6.00 Build 0)  -->
<!DOCTYPE svg PUBLIC "-//W3C//DTD SVG 1.1//EN" "http://www.w3.org/Graphics/SVG/1.1/DTD/svg11.dtd">
<svg version="1.1" id="Calque_1" xmlns="http://www.w3.org/2000/svg" xmlns:xlink="http://www.w3.org/1999/xlink" x="0px" y="0px"
	 width="24px" height="24px" viewBox="0 0 24 24" enable-background="new 0 0 24 24" xml:space="preserve">
<g>
	<g>
		
			<linearGradient id="SVGID_1_" gradientUnits="userSpaceOnUse" x1="680.8545" y1="714.5576" x2="680.8545" y2="701.9688" gradientTransform="matrix(1 0 0 1 -669.5605 -695.5596)">
			<stop  offset="0" style="stop-color:#F98F47"/>
			<stop  offset="1" style="stop-color:#F9CB49"/>
		</linearGradient>
		<polygon fill="url(#SVGID_1_)" points="5,16.316 14.91,6.409 17.59,9.091 7.682,18.998 		"/>
		<path fill="#C0865A" d="M14.91,6.586l2.503,2.505L7.682,18.82l-2.504-2.504L14.91,6.586 M14.91,6.232L4.822,16.316l2.857,2.856
			L17.768,9.091L14.91,6.232L14.91,6.232z"/>
	</g>
	
		<linearGradient id="SVGID_2_" gradientUnits="userSpaceOnUse" x1="985.5947" y1="66.4014" x2="985.5947" y2="63.2148" gradientTransform="matrix(0.7071 0.7071 -0.7071 0.7071 -645.9639 -723.8679)">
		<stop  offset="0" style="stop-color:#C8915F"/>
		<stop  offset="0.3329" style="stop-color:#CB9564"/>
		<stop  offset="0.7107" style="stop-color:#D2A071"/>
		<stop  offset="1" style="stop-color:#DBAD81"/>
	</linearGradient>
	<polygon fill="url(#SVGID_2_)" points="4.822,16.316 4,20 7.682,19.175 	"/>
	<polygon fill="#252525" points="4,20 5.504,19.662 4.335,18.496 	"/>
	
		<rect x="11.942" y="6.816" transform="matrix(-0.7082 -0.706 0.706 -0.7082 11.3496 31.986)" opacity="0.4" fill="#FFFFFE" enable-background="new    " width="0.685" height="13.663"/>
	
		<rect x="10.053" y="4.772" transform="matrix(-0.6983 -0.7158 0.7158 -0.6983 8.9783 26.932)" opacity="0.4" fill="#FFFFFE" enable-background="new    " width="0.224" height="13.604"/>
	<g>
		
			<rect x="15.959" y="5.341" transform="matrix(-0.7065 0.7077 -0.7077 -0.7065 33.7288 0.4857)" fill="#E6E6E6" width="1.609" height="3.792"/>
		<path fill="#666666" d="M15.99,5.504l2.505,2.505l-0.96,0.961l-2.506-2.504L15.99,5.504 M15.99,5.15l-1.314,1.315l2.858,2.857
			l1.313-1.314L15.99,5.15L15.99,5.15z"/>
	</g>
	
		<linearGradient id="SVGID_3_" gradientUnits="userSpaceOnUse" x1="985.5967" y1="47.7637" x2="985.5967" y2="45.0635" gradientTransform="matrix(0.7071 0.7071 -0.7071 0.7071 -645.9639 -723.8679)">
		<stop  offset="0" style="stop-color:#86332D"/>
		<stop  offset="0.2281" style="stop-color:#8C332E"/>
		<stop  offset="0.5333" style="stop-color:#9D3331"/>
		<stop  offset="0.8808" style="stop-color:#B93435"/>
		<stop  offset="1" style="stop-color:#C43437"/>
	</linearGradient>
	<path fill="url(#SVGID_3_)" d="M19.639,5.462l-1.102-1.1c-0.482-0.482-1.273-0.482-1.758,0l-0.057,0.057l-0.056,0.055L15.75,5.392
		l2.857,2.858l0.918-0.919l0.057-0.055l0.057-0.055C20.121,6.737,20.121,5.946,19.639,5.462z"/>
</g>
</svg>
