<?xml version="1.0" encoding="utf-8"?>
<!-- Generator: Adobe Illustrator 15.0.0, SVG Export Plug-In . SVG Version: 6.00 Build 0)  -->
<!DOCTYPE svg PUBLIC "-//W3C//DTD SVG 1.1//EN" "http://www.w3.org/Graphics/SVG/1.1/DTD/svg11.dtd">
<svg version="1.1" id="Calque_1" xmlns="http://www.w3.org/2000/svg" xmlns:xlink="http://www.w3.org/1999/xlink" x="0px" y="0px"
	 width="80px" height="24px" viewBox="0 0 80 24" enable-background="new 0 0 80 24" xml:space="preserve">
<g>
	
		<linearGradient id="SVGID_1_" gradientUnits="userSpaceOnUse" x1="1094.5205" y1="-947.1602" x2="1094.5205" y2="-971.1602" gradientTransform="matrix(1 0 0 -1 -1054.5205 -947.1602)">
		<stop  offset="0" style="stop-color:#24CFDE"/>
		<stop  offset="1" style="stop-color:#1DA9B6"/>
	</linearGradient>
	<path fill="url(#SVGID_1_)" d="M80,20c0,2.2-1.8,4-4,4H4c-2.2,0-4-1.8-4-4V4c0-2.2,1.8-4,4-4h72c2.2,0,4,1.8,4,4V20z"/>
</g>
<g>
	<path fill="#E8C6B0" d="M78.25,20.5c0,1.1-0.9,2-2,2H3.75c-1.1,0-2-0.9-2-2v-17c0-1.1,0.9-2,2-2h72.5c1.1,0,2,0.9,2,2V20.5z"/>
</g>
<linearGradient id="SVGID_2_" gradientUnits="userSpaceOnUse" x1="1094.5205" y1="-948.6602" x2="1094.5205" y2="-969.6602" gradientTransform="matrix(1 0 0 -1 -1054.5205 -947.1602)">
	<stop  offset="0.006" style="stop-color:#FFFFFE"/>
	<stop  offset="1" style="stop-color:#FFFFFE;stop-opacity:0"/>
</linearGradient>
<path fill="url(#SVGID_2_)" d="M76.25,2.5c0.553,0,1,0.449,1,1v17c0,0.553-0.447,1-1,1H3.75c-0.551,0-1-0.447-1-1v-17
	c0-0.551,0.449-1,1-1H76.25 M76.25,1.5H3.75c-1.1,0-2,0.9-2,2v17c0,1.1,0.9,2,2,2h72.5c1.1,0,2-0.9,2-2v-17
	C78.25,2.4,77.35,1.5,76.25,1.5L76.25,1.5z"/>
</svg>
