<?xml version="1.0" encoding="utf-8"?>
<!-- Generator: Adobe Illustrator 15.0.2, SVG Export Plug-In . SVG Version: 6.00 Build 0)  -->
<!DOCTYPE svg PUBLIC "-//W3C//DTD SVG 1.1//EN" "http://www.w3.org/Graphics/SVG/1.1/DTD/svg11.dtd">
<svg version="1.1" id="Calque_1" xmlns="http://www.w3.org/2000/svg" xmlns:xlink="http://www.w3.org/1999/xlink" x="0px" y="0px"
	 width="120px" height="24px" viewBox="-24 0 120 24" enable-background="new -24 0 120 24" xml:space="preserve">
<g>
	<path fill="#2D2D2D" d="M3.411,5l7.879,7.882c0.188,0.188,0.439,0.292,0.711,0.292s0.523-0.104,0.711-0.292L20.593,5H3.411z"/>
	<g>
		<path fill="#2D2D2D" d="M15.016,12.016l-1.57,1.568c-0.387,0.389-0.899,0.583-1.412,0.583s-1.023-0.194-1.413-0.583L9.02,11.982
			L2.422,18.58c-0.043,0.046-0.087,0.08-0.131,0.117C2.474,18.884,2.728,19,3.008,19h17.987c0.281,0,0.533-0.116,0.717-0.303
			c-0.046-0.037-0.089-0.071-0.131-0.117L15.016,12.016z"/>
	</g>
	<g>
		<path fill="#2D2D2D" d="M2.455,5.419C2.404,5.368,2.369,5.318,2.327,5.27C2.128,5.454,2.002,5.713,2.002,6.003v11.588l6.312-6.313
			L2.455,5.419z"/>
		<path fill="#2D2D2D" d="M21.612,5.419l-5.896,5.894l6.281,6.279V6.003c0-0.273-0.111-0.52-0.287-0.7
			C21.677,5.341,21.651,5.379,21.612,5.419z"/>
	</g>
</g>
<g opacity="0.5">
	<path fill="#2D2D2D" d="M3.412,5l7.879,7.882c0.188,0.188,0.439,0.292,0.711,0.292s0.523-0.104,0.711-0.292L20.594,5H3.412z"/>
	<g>
		<path fill="#2D2D2D" d="M15.017,12.016l-1.57,1.568c-0.387,0.389-0.899,0.583-1.412,0.583s-1.023-0.194-1.413-0.583l-1.601-1.601
			L2.423,18.58c-0.043,0.046-0.087,0.08-0.131,0.117C2.475,18.884,2.729,19,3.009,19h17.987c0.281,0,0.533-0.116,0.717-0.303
			c-0.046-0.037-0.089-0.071-0.131-0.117L15.017,12.016z"/>
	</g>
	<g>
		<path fill="#2D2D2D" d="M2.456,5.419C2.405,5.368,2.37,5.318,2.328,5.27C2.13,5.454,2.003,5.713,2.003,6.003v11.588l6.312-6.313
			L2.456,5.419z"/>
		<path fill="#2D2D2D" d="M21.613,5.419l-5.896,5.894l6.281,6.279V6.003c0-0.273-0.111-0.52-0.287-0.7
			C21.678,5.341,21.652,5.379,21.613,5.419z"/>
	</g>
</g>
<g>
	<path fill="#2D2D2D" d="M-20.589,5l7.879,7.882c0.188,0.188,0.439,0.292,0.711,0.292s0.523-0.104,0.711-0.292L-3.407,5H-20.589z"/>
	<g>
		<path fill="#2D2D2D" d="M-8.984,12.016l-1.57,1.568c-0.387,0.389-0.899,0.583-1.412,0.583s-1.023-0.194-1.413-0.583l-1.601-1.602
			l-6.598,6.598c-0.043,0.046-0.087,0.08-0.131,0.117C-21.526,18.884-21.272,19-20.992,19h17.987c0.281,0,0.533-0.116,0.717-0.303
			c-0.046-0.037-0.089-0.071-0.131-0.117L-8.984,12.016z"/>
	</g>
	<g>
		<path fill="#2D2D2D" d="M-21.545,5.419c-0.051-0.051-0.086-0.101-0.128-0.149c-0.198,0.184-0.324,0.443-0.324,0.733v11.588
			l6.312-6.313L-21.545,5.419z"/>
		<path fill="#2D2D2D" d="M-2.388,5.419l-5.896,5.894l6.281,6.279V6.003c0-0.273-0.111-0.52-0.287-0.7
			C-2.323,5.341-2.349,5.379-2.388,5.419z"/>
	</g>
</g>
<g opacity="0.5">
	<path fill="#2D2D2D" d="M-20.588,5l7.879,7.882c0.188,0.188,0.439,0.292,0.711,0.292s0.523-0.104,0.711-0.292L-3.406,5H-20.588z"/>
	<g>
		<path fill="#2D2D2D" d="M-8.983,12.016l-1.57,1.568c-0.387,0.389-0.899,0.583-1.412,0.583s-1.023-0.194-1.413-0.583l-1.601-1.601
			l-6.598,6.597c-0.043,0.046-0.087,0.08-0.131,0.117C-21.525,18.884-21.271,19-20.991,19h17.987c0.281,0,0.533-0.116,0.717-0.303
			c-0.046-0.037-0.089-0.071-0.131-0.117L-8.983,12.016z"/>
	</g>
	<g>
		<path fill="#2D2D2D" d="M-21.544,5.419c-0.051-0.051-0.086-0.101-0.128-0.149c-0.198,0.184-0.324,0.443-0.324,0.733v11.588
			l6.312-6.313L-21.544,5.419z"/>
		<path fill="#2D2D2D" d="M-2.387,5.419l-5.896,5.894l6.281,6.279V6.003c0-0.273-0.111-0.52-0.287-0.7
			C-2.322,5.341-2.348,5.379-2.387,5.419z"/>
	</g>
</g>
<g opacity="0.5">
	<path fill="#2D2D2D" d="M27.412,5l7.879,7.882c0.188,0.188,0.439,0.292,0.711,0.292s0.523-0.104,0.711-0.292L44.594,5H27.412z"/>
	<g>
		<path fill="#2D2D2D" d="M39.017,12.016l-1.57,1.568c-0.387,0.389-0.899,0.583-1.412,0.583s-1.023-0.194-1.413-0.583l-1.601-1.601
			l-6.598,6.597c-0.043,0.046-0.087,0.08-0.131,0.117C26.475,18.884,26.729,19,27.009,19h17.987c0.281,0,0.533-0.116,0.718-0.303
			c-0.047-0.037-0.09-0.071-0.132-0.117L39.017,12.016z"/>
	</g>
	<g>
		<path fill="#2D2D2D" d="M26.456,5.419c-0.051-0.051-0.086-0.101-0.128-0.149c-0.198,0.184-0.324,0.443-0.324,0.733v11.588
			l6.312-6.313L26.456,5.419z"/>
		<path fill="#2D2D2D" d="M45.613,5.419l-5.896,5.894l6.281,6.279V6.003c0-0.273-0.11-0.52-0.287-0.7
			C45.678,5.341,45.652,5.379,45.613,5.419z"/>
	</g>
</g>
<g opacity="0.5">
	<path fill="#2D2D2D" d="M51.412,5l7.879,7.882c0.188,0.188,0.438,0.292,0.711,0.292c0.271,0,0.521-0.104,0.711-0.292L68.594,5
		H51.412z"/>
	<g>
		<path fill="#2D2D2D" d="M63.016,12.016l-1.568,1.568c-0.389,0.389-0.9,0.583-1.412,0.583c-0.514,0-1.023-0.194-1.414-0.583
			l-1.602-1.601l-6.598,6.597c-0.043,0.046-0.088,0.08-0.131,0.117C50.473,18.884,50.727,19,51.008,19h17.988
			c0.281,0,0.533-0.116,0.717-0.303c-0.047-0.037-0.09-0.071-0.131-0.117L63.016,12.016z"/>
	</g>
	<g>
		<path fill="#2D2D2D" d="M50.455,5.419c-0.051-0.051-0.086-0.101-0.127-0.149c-0.199,0.184-0.324,0.443-0.324,0.733v11.588
			l6.311-6.313L50.455,5.419z"/>
		<path fill="#2D2D2D" d="M69.613,5.419l-5.896,5.894l6.281,6.279V6.003c0-0.273-0.111-0.52-0.287-0.7
			C69.678,5.341,69.652,5.379,69.613,5.419z"/>
	</g>
</g>
<g opacity="0.5">
	<path fill="#2D2D2D" d="M75.412,5l7.879,7.882c0.188,0.188,0.438,0.292,0.711,0.292c0.271,0,0.521-0.104,0.711-0.292L92.594,5
		H75.412z"/>
	<g>
		<path fill="#2D2D2D" d="M87.016,12.016l-1.568,1.568c-0.389,0.389-0.9,0.583-1.412,0.583c-0.514,0-1.023-0.194-1.414-0.583
			l-1.602-1.601l-6.598,6.597c-0.043,0.046-0.088,0.08-0.131,0.117C74.475,18.884,74.729,19,75.008,19h17.986
			c0.281,0,0.533-0.116,0.717-0.303c-0.045-0.037-0.088-0.071-0.131-0.117L87.016,12.016z"/>
	</g>
	<g>
		<path fill="#2D2D2D" d="M74.455,5.419c-0.051-0.051-0.086-0.101-0.127-0.149c-0.199,0.184-0.324,0.443-0.324,0.733v11.588
			l6.311-6.313L74.455,5.419z"/>
		<path fill="#2D2D2D" d="M93.613,5.419l-5.896,5.894l6.281,6.279V6.003c0-0.273-0.111-0.52-0.287-0.7
			C93.678,5.341,93.652,5.379,93.613,5.419z"/>
	</g>
</g>
</svg>
