<?xml version="1.0" encoding="utf-8"?>
<!-- Generator: Adobe Illustrator 15.0.2, SVG Export Plug-In . SVG Version: 6.00 Build 0)  -->
<!DOCTYPE svg PUBLIC "-//W3C//DTD SVG 1.1//EN" "http://www.w3.org/Graphics/SVG/1.1/DTD/svg11.dtd">
<svg version="1.1" id="Calque_1" xmlns="http://www.w3.org/2000/svg" xmlns:xlink="http://www.w3.org/1999/xlink" x="0px" y="0px"
	 width="24px" height="24px" viewBox="0 0 24 24" enable-background="new 0 0 24 24" xml:space="preserve">
<g>
	<g>
		<g>
			<g>
				
					<linearGradient id="SVGID_1_" gradientUnits="userSpaceOnUse" x1="679.0908" y1="712.2578" x2="676.9756" y2="710.1428" gradientTransform="matrix(1 0 0 1 -669.5605 -695.5596)">
					<stop  offset="0" style="stop-color:#155C94"/>
					<stop  offset="0.1764" style="stop-color:#196097"/>
					<stop  offset="0.3405" style="stop-color:#236B9F"/>
					<stop  offset="0.4997" style="stop-color:#367EAE"/>
					<stop  offset="0.6559" style="stop-color:#4F98C2"/>
					<stop  offset="0.8085" style="stop-color:#70BADC"/>
					<stop  offset="0.8817" style="stop-color:#82CDEB"/>
				</linearGradient>
				<path fill="url(#SVGID_1_)" d="M4.896,19.216c-0.582-0.58-0.104-2.012,1.063-3.178l2.911-2.91
					c1.166-1.167,2.597-1.646,3.179-1.064c0.581,0.583,0.102,2.014-1.064,3.18l-2.909,2.909C6.91,19.318,5.479,19.798,4.896,19.216z
					"/>
			</g>
			<g>
				<path fill="#013D6B" d="M10.993,11.157c0,0,0.442,0.442,0.981,0.982c0.539,0.541,0.026,1.938-1.141,3.104l-2.758,2.758
					c-1.167,1.167-2.563,1.681-3.104,1.14c-0.541-0.539-0.027-1.937,1.139-3.103L10.993,11.157 M12.125,11.989
					c-0.623-0.623-2.087-0.179-3.254,0.99l-3.063,3.061c-1.166,1.166-1.611,2.631-0.988,3.254c0.625,0.623,2.089,0.178,3.255-0.988
					l3.062-3.061C12.303,14.077,12.747,12.613,12.125,11.989z"/>
			</g>
		</g>
	</g>
	<circle fill="#4B4B4B" cx="14.318" cy="9.57" r="5.144"/>
	<circle fill="#EAEAEA" cx="14.316" cy="9.57" r="4.699"/>
	<circle fill="#7E7E7E" cx="14.316" cy="9.57" r="4.058"/>
	
		<linearGradient id="SVGID_2_" gradientUnits="userSpaceOnUse" x1="683.877" y1="708.7598" x2="683.877" y2="701.499" gradientTransform="matrix(1 0 0 1 -669.5605 -695.5596)">
		<stop  offset="0" style="stop-color:#80CAF5"/>
		<stop  offset="1" style="stop-color:#C5E6FA"/>
	</linearGradient>
	<circle fill="url(#SVGID_2_)" cx="14.316" cy="9.57" r="3.63"/>
	
		<linearGradient id="SVGID_3_" gradientUnits="userSpaceOnUse" x1="683.9141" y1="704.1133" x2="683.9141" y2="702.1553" gradientTransform="matrix(1 0 0 1 -669.5605 -695.5596)">
		<stop  offset="0" style="stop-color:#C5E6FA;stop-opacity:0.1"/>
		<stop  offset="1" style="stop-color:#EFF8FE"/>
	</linearGradient>
	<path fill="url(#SVGID_3_)" d="M11.596,8.554c0,0,1.174-1.958,2.723-1.958c1.55,0,2.795,1.958,2.795,1.958H11.596z"/>
</g>
</svg>
