<?xml version="1.0" encoding="utf-8"?>
<!-- Generator: Adobe Illustrator 15.0.2, SVG Export Plug-In . SVG Version: 6.00 Build 0)  -->
<!DOCTYPE svg PUBLIC "-//W3C//DTD SVG 1.1//EN" "http://www.w3.org/Graphics/SVG/1.1/DTD/svg11.dtd">
<svg version="1.1" id="Calque_1" xmlns="http://www.w3.org/2000/svg" xmlns:xlink="http://www.w3.org/1999/xlink" x="0px" y="0px"
	 width="24px" height="24px" viewBox="0 0 24 24" enable-background="new 0 0 24 24" xml:space="preserve">
<g>
	<g>
		<circle fill="#C73D3D" cx="12" cy="12" r="8"/>
	</g>
	<g>
		
			<radialGradient id="SVGID_1_" cx="-1529.3599" cy="-1188.793" r="7.4987" gradientTransform="matrix(-4.371139e-008 -1 -1.5 6.556708e-008 -1771.1898 -1517.3599)" gradientUnits="userSpaceOnUse">
			<stop  offset="0" style="stop-color:#D43939"/>
			<stop  offset="0.3586" style="stop-color:#D53B3B"/>
			<stop  offset="0.5227" style="stop-color:#D64343"/>
			<stop  offset="0.6472" style="stop-color:#D94F4F"/>
			<stop  offset="0.7518" style="stop-color:#DE6161"/>
			<stop  offset="0.8437" style="stop-color:#E47979"/>
			<stop  offset="0.9256" style="stop-color:#EB9696"/>
			<stop  offset="1" style="stop-color:#F3B7B7"/>
		</radialGradient>
		<circle fill="url(#SVGID_1_)" cx="12" cy="12" r="7.5"/>
	</g>
	<path fill="#C73D3D" d="M13.369,8.686l-1.398,1.399L10.6,8.715c-0.388-0.388-1.024-0.389-1.414,0l-0.529,0.53
		c-0.389,0.389-0.389,1.026,0,1.415l1.369,1.369l-1.34,1.342c-0.39,0.389-0.389,1.025,0,1.414l0.53,0.529
		c0.39,0.392,1.025,0.39,1.414,0l1.341-1.34l1.371,1.371c0.389,0.389,1.025,0.389,1.414,0l0.53-0.531
		c0.389-0.391,0.39-1.023,0-1.414l-1.371-1.373l1.399-1.398c0.39-0.39,0.39-1.023,0-1.414l-0.53-0.53
		C14.396,8.298,13.757,8.298,13.369,8.686z"/>
	<g opacity="0.2">
		<path d="M9.54,9.069c0.19-0.191,0.517-0.191,0.707,0l1.37,1.371l0.354,0.354l0.354-0.354l1.399-1.398
			c0.189-0.192,0.516-0.191,0.707,0l0.527,0.529c0.193,0.195,0.193,0.513,0,0.707l-1.396,1.4l-0.354,0.354l0.354,0.354l1.371,1.371
			c0.191,0.193,0.192,0.513,0,0.707l-0.531,0.53c-0.194,0.193-0.512,0.193-0.707,0l-1.37-1.371l-0.354-0.354l-0.354,0.354
			l-1.34,1.341c-0.195,0.195-0.512,0.195-0.707,0l-0.531-0.528c-0.191-0.19-0.191-0.518,0-0.707l1.341-1.341l0.354-0.354
			l-0.354-0.354l-1.37-1.371c-0.191-0.191-0.191-0.516,0-0.707L9.54,9.069 M9.188,8.715l-0.53,0.53c-0.39,0.389-0.388,1.026,0,1.415
			l1.37,1.369l-1.342,1.342c-0.389,0.389-0.388,1.025,0,1.414l0.531,0.529c0.391,0.392,1.025,0.39,1.414,0l1.342-1.34l1.37,1.371
			c0.39,0.389,1.025,0.389,1.414,0l0.53-0.531c0.389-0.391,0.391-1.023,0-1.414l-1.371-1.373l1.398-1.398
			c0.391-0.39,0.391-1.023,0-1.414l-0.529-0.53c-0.389-0.388-1.025-0.39-1.414,0l-1.398,1.399l-1.371-1.371
			C10.212,8.328,9.575,8.327,9.188,8.715L9.188,8.715z"/>
	</g>
	<g opacity="0.45">
		<path fill="#FFFFFE" d="M9.188,8.715c0.389-0.389,1.025-0.388,1.414,0l1.371,1.371l1.398-1.399c0.389-0.39,1.025-0.388,1.414,0
			l0.529,0.53c0.391,0.391,0.391,1.024,0,1.414l-1.398,1.398l1.371,1.372c0.391,0.392,0.389,1.024,0,1.414l-0.53,0.531
			c-0.389,0.389-1.024,0.389-1.414,0l-1.37-1.371l-1.342,1.34c-0.389,0.391-1.023,0.393-1.414,0l-0.531-0.528
			c-0.388-0.39-0.389-1.025,0-1.414l1.342-1.342l-1.37-1.369c-0.388-0.389-0.39-1.025,0-1.415L9.188,8.715 M8.833,8.362l-0.53,0.53
			c-0.585,0.585-0.584,1.538,0,2.122l1.018,1.018l-0.987,0.985c-0.584,0.586-0.584,1.537,0,2.121l0.53,0.529
			c0.586,0.586,1.537,0.585,2.121,0l0.988-0.986l1.016,1.02c0.586,0.586,1.537,0.585,2.121,0l0.531-0.53
			c0.584-0.585,0.586-1.536,0-2.121l-1.02-1.018l1.045-1.045c0.585-0.586,0.585-1.536,0-2.122l-0.527-0.53
			c-0.584-0.584-1.537-0.586-2.121,0L11.973,9.38l-1.018-1.017C10.369,7.777,9.417,7.777,8.833,8.362L8.833,8.362z"/>
	</g>
</g>
</svg>
