<?xml version="1.0" encoding="utf-8"?>
<!-- Generator: Adobe Illustrator 15.0.2, SVG Export Plug-In . SVG Version: 6.00 Build 0)  -->
<!DOCTYPE svg PUBLIC "-//W3C//DTD SVG 1.1//EN" "http://www.w3.org/Graphics/SVG/1.1/DTD/svg11.dtd">
<svg version="1.1" id="Calque_1" xmlns="http://www.w3.org/2000/svg" xmlns:xlink="http://www.w3.org/1999/xlink" x="0px" y="0px"
	 width="22px" height="18px" viewBox="0 -1 22 18" enable-background="new 0 -1 22 18" xml:space="preserve">
<g>
	<rect x="2" y="1" fill="#EEEBE8" width="16" height="4.452"/>
	<rect x="2" y="5.401" fill="#FFF5F5" width="16" height="11.599"/>
	
		<linearGradient id="SVGID_1_" gradientUnits="userSpaceOnUse" x1="1048.7197" y1="-1711.5801" x2="1048.7197" y2="-1710.0144" gradientTransform="matrix(1 0 0 -1 -1038.7197 -1694.5801)">
		<stop  offset="0" style="stop-color:#000000;stop-opacity:0.2"/>
		<stop  offset="1" style="stop-color:#000000;stop-opacity:0"/>
	</linearGradient>
	<rect x="2" y="15.457" fill="url(#SVGID_1_)" width="16" height="1.543"/>
	<g>
		<path fill="#006E12" d="M8.266,11.244c0.18-0.115,0.342-0.273,0.484-0.477c0.219-0.31,0.33-0.66,0.33-1.062
			c0-0.521-0.199-0.96-0.594-1.295C8.1,8.086,7.598,7.919,6.99,7.919c-0.696,0-1.204,0.203-1.508,0.602l-0.061,0.08l0.555,0.854
			l0.121-0.139c0.205-0.233,0.475-0.352,0.825-0.352c0.638,0,0.935,0.291,0.935,0.916c0,0.6-0.318,0.872-1.002,0.872h-0.18v1.019
			h0.212c0.368,0,0.652,0.102,0.869,0.312c0.217,0.207,0.321,0.472,0.321,0.812c0,0.742-0.353,1.088-1.109,1.088
			c-0.411,0-0.741-0.146-1.01-0.438l-0.125-0.142l-0.591,0.951l0.085,0.08c0.178,0.166,0.411,0.308,0.714,0.422
			c0.297,0.117,0.605,0.181,0.913,0.181c0.729,0,1.308-0.187,1.718-0.537C9.089,14.135,9.3,13.62,9.3,12.966
			c0-0.452-0.122-0.846-0.362-1.163C8.76,11.564,8.535,11.378,8.266,11.244z"/>
		<path fill="#006E12" d="M12.555,8.01l-0.041,0.055c-0.207,0.264-0.496,0.545-0.863,0.834c-0.372,0.292-0.727,0.526-1.055,0.697
			l-0.078,0.037v1.186l1.336-0.838v4.961h1.184V8.01H12.555z"/>
	</g>
	<polygon fill="#2AEDFF" points="14.335,17 17.998,17 17.998,13.314 	"/>
	
		<linearGradient id="SVGID_2_" gradientUnits="userSpaceOnUse" x1="1040.4873" y1="-1695.8643" x2="1056.937" y2="-1711.2799" gradientTransform="matrix(1 0 0 -1 -1038.7197 -1694.5801)">
		<stop  offset="0" style="stop-color:#2AEDFF;stop-opacity:0"/>
		<stop  offset="1" style="stop-color:#2AEDFF"/>
	</linearGradient>
	<path fill="url(#SVGID_2_)" d="M2,1v4.402v0.05V17h16V5.452v-0.05V1H2z M2.5,1.502h15v3.446h-15V1.502z M17.5,16.497h-15V5.452h15
		V16.497z"/>
</g>
</svg>
