<?xml version="1.0" encoding="utf-8"?>
<!-- Generator: Adobe Illustrator 15.0.2, SVG Export Plug-In . SVG Version: 6.00 Build 0)  -->
<!DOCTYPE svg PUBLIC "-//W3C//DTD SVG 1.1//EN" "http://www.w3.org/Graphics/SVG/1.1/DTD/svg11.dtd">
<svg version="1.1" id="Calque_1" xmlns="http://www.w3.org/2000/svg" xmlns:xlink="http://www.w3.org/1999/xlink" x="0px" y="0px"
	 width="35px" height="35px" viewBox="0 0 35 35" enable-background="new 0 0 35 35" xml:space="preserve">
<g>
	<path fill="#FFFBFF" d="M5.193,26.6c0.123-0.326,0.301-0.584,0.535-0.783l5.899-5.604c0.417,0.636,0.887,1.22,1.42,1.75
		c0.623,0.617,1.31,1.156,2.063,1.619L9.07,29.32c-0.197,0.219-0.444,0.387-0.748,0.496c-0.301,0.111-0.605,0.17-0.914,0.17
		c-0.319,0-0.629-0.063-0.926-0.188c-0.296-0.129-0.563-0.313-0.796-0.559c-0.226-0.238-0.395-0.499-0.509-0.788
		c-0.113-0.291-0.167-0.589-0.167-0.892C5.01,27.24,5.07,26.923,5.193,26.6z"/>
	<path fill="#FFFBFF" d="M20.924,5.013c-5.008,0-9.066,4.059-9.066,9.066s4.059,9.065,9.066,9.065c5.008,0,9.066-4.061,9.066-9.065
		C29.99,9.071,25.932,5.013,20.924,5.013z M20.924,20.415c-3.499,0-6.336-2.837-6.336-6.336s2.837-6.336,6.336-6.336
		c3.5,0,6.336,2.837,6.336,6.336S24.424,20.415,20.924,20.415z"/>
</g>
</svg>
