<?xml version="1.0" encoding="utf-8"?>
<!-- Generator: Adobe Illustrator 15.0.2, SVG Export Plug-In . SVG Version: 6.00 Build 0)  -->
<!DOCTYPE svg PUBLIC "-//W3C//DTD SVG 1.1//EN" "http://www.w3.org/Graphics/SVG/1.1/DTD/svg11.dtd">
<svg version="1.1" id="Calque_1" xmlns="http://www.w3.org/2000/svg" xmlns:xlink="http://www.w3.org/1999/xlink" x="0px" y="0px"
	 width="205px" height="205px" viewBox="0 0 205 205" enable-background="new 0 0 205 205" xml:space="preserve">
<g>
	
		<linearGradient id="SVGID_1_" gradientUnits="userSpaceOnUse" x1="3397.2695" y1="2903.3281" x2="3397.2695" y2="2724.8281" gradientTransform="matrix(1 0 0 1 -3294.5195 -2712.5781)">
		<stop  offset="0" style="stop-color:#E8C6B0"/>
		<stop  offset="1" style="stop-color:#EEEBE8"/>
	</linearGradient>
	<circle fill="url(#SVGID_1_)" cx="102.75" cy="101.5" r="89.25"/>
	<path fill="#E8C6B0" d="M102.75,14.481c47.981,0,87.019,39.035,87.019,87.019c0,47.984-39.032,87.019-87.019,87.019
		c-47.983,0-87.02-39.034-87.02-87.019C15.73,53.516,54.767,14.481,102.75,14.481 M102.75,12.25c-49.291,0-89.25,39.957-89.25,89.25
		c0,49.289,39.959,89.25,89.25,89.25c49.289,0,89.25-39.961,89.25-89.25C192,52.207,152.039,12.25,102.75,12.25L102.75,12.25z"/>
</g>
<g>
	<path d="M100.943,48.176c-4.415,0-8.03,3.056-8.836,7.237h-0.234L62.862,88.067h14.506l20.066-22.563
		c1.083,0.46,2.271,0.8,3.509,0.8c1.252,0,2.422-0.342,3.514-0.8l20.05,22.563h14.521L110.002,55.41h-0.231
		C108.987,51.232,105.366,48.176,100.943,48.176L100.943,48.176z M48.363,90.492c-4.024,0-7.269,3.241-7.269,7.264v3.627
		c0,3.826,2.942,6.835,6.698,7.143l11.438,40.004c3.628,7.262,7.26,7.262,10.875,7.262h65.291c3.641,0,7.242,0,10.877-7.262
		l11.46-40.004c3.741-0.313,6.669-3.317,6.669-7.143v-3.627c0-4.022-3.217-7.264-7.236-7.264H48.363L48.363,90.492z M68.768,108.631
		h1.806c4.022,0,7.988,3.03,8.836,6.798l5.103,22.569c0.848,3.78-1.757,6.898-5.775,6.898H76.91c-4.02,0-7.988-3.113-8.833-6.898
		l-5.103-22.569C62.121,111.663,64.741,108.631,68.768,108.631L68.768,108.631z M102.762,108.631c4.017,0,7.245,3.239,7.245,7.267
		v21.76c0,4.015-3.223,7.236-7.245,7.236c-4.022,0-7.263-3.222-7.263-7.236v-21.76C95.502,111.872,98.742,108.631,102.762,108.631
		L102.762,108.631z M134.947,108.631h1.814c4.021,0,6.624,3.03,5.771,6.798l-5.097,22.569c-0.854,3.78-4.812,6.898-8.839,6.898
		h-1.817c-4.021,0-6.622-3.113-5.771-6.898l5.098-22.569C126.955,111.663,130.925,108.631,134.947,108.631L134.947,108.631z"/>
	<path fill="#FFFFFE" d="M100.943,47.207c-4.415,0-8.03,3.06-8.836,7.241h-0.234L62.862,87.099h14.506l20.066-22.56
		c1.083,0.46,2.271,0.798,3.509,0.798c1.252,0,2.422-0.34,3.514-0.798l20.05,22.56h14.521l-29.025-32.654h-0.231
		C108.987,50.269,105.366,47.207,100.943,47.207L100.943,47.207z M48.363,89.535c-4.024,0-7.269,3.24-7.269,7.262v3.627
		c0,3.827,2.942,6.832,6.698,7.143l11.438,40.001c3.628,7.257,7.26,7.257,10.875,7.257h65.291c3.641,0,7.242,0,10.877-7.257
		l11.46-40.001c3.741-0.315,6.669-3.315,6.669-7.143v-3.627c0-4.022-3.217-7.262-7.236-7.262H48.363L48.363,89.535z M68.768,107.67
		h1.806c4.022,0,7.988,3.024,8.833,6.794l5.103,22.567c0.848,3.782-1.757,6.906-5.775,6.906H76.91c-4.02,0-7.988-3.121-8.833-6.906
		l-5.103-22.567C62.121,110.699,64.741,107.67,68.768,107.67L68.768,107.67z M102.762,107.67c4.017,0,7.245,3.231,7.245,7.261
		v21.765c0,4.015-3.223,7.242-7.245,7.242c-4.022,0-7.263-3.229-7.263-7.242v-21.765C95.502,110.901,98.742,107.67,102.762,107.67
		L102.762,107.67z M134.947,107.67h1.814c4.021,0,6.624,3.024,5.771,6.794l-5.097,22.567c-0.854,3.782-4.812,6.906-8.839,6.906
		h-1.817c-4.021,0-6.622-3.121-5.771-6.906l5.098-22.567C126.955,110.699,130.925,107.67,134.947,107.67L134.947,107.67z"/>
</g>
</svg>
