<?xml version="1.0" encoding="utf-8"?>
<!-- Generator: Adobe Illustrator 15.0.2, SVG Export Plug-In . SVG Version: 6.00 Build 0)  -->
<!DOCTYPE svg PUBLIC "-//W3C//DTD SVG 1.1//EN" "http://www.w3.org/Graphics/SVG/1.1/DTD/svg11.dtd">
<svg version="1.1" id="Calque_1" xmlns="http://www.w3.org/2000/svg" xmlns:xlink="http://www.w3.org/1999/xlink" x="0px" y="0px"
	 width="80px" height="80px" viewBox="0 0 80 80" enable-background="new 0 0 80 80" xml:space="preserve">
<g>
	
		<linearGradient id="SVGID_1_" gradientUnits="userSpaceOnUse" x1="3859.6807" y1="-3767.0977" x2="3859.6807" y2="-3707.0977" gradientTransform="matrix(1 0 0 -1 -3819.6797 -3697.0977)">
		<stop  offset="0" style="stop-color:#E8C6B0"/>
		<stop  offset="1" style="stop-color:#EEEBE8"/>
	</linearGradient>
	<circle fill="url(#SVGID_1_)" cx="40" cy="40" r="30"/>
	<path fill="#E8C6B0" d="M40,10.749c16.128,0,29.25,13.122,29.25,29.251c0,16.129-13.121,29.25-29.25,29.25
		c-16.128,0-29.251-13.121-29.251-29.25C10.749,23.872,23.872,10.749,40,10.749 M40,10c-16.569,0-30,13.432-30,30s13.433,30,30,30
		c16.566,0,30-13.432,30-30C70,23.431,56.568,10,40,10L40,10z"/>
</g>
<g>
	<path d="M39.393,22.078c-1.484,0-2.701,1.027-2.971,2.431h-0.079l-9.751,10.977h4.878l6.745-7.583
		c0.363,0.153,0.762,0.268,1.178,0.268c0.421,0,0.813-0.115,1.183-0.268l6.738,7.583h4.88l-9.755-10.979h-0.081
		C42.096,23.105,40.879,22.078,39.393,22.078L39.393,22.078z M21.72,36.301c-1.354,0-2.444,1.088-2.444,2.441v1.22
		c0,1.284,0.988,2.296,2.252,2.399l3.845,13.445c1.218,2.44,2.438,2.44,3.654,2.44h21.945c1.224,0,2.436,0,3.656-2.44l3.852-13.445
		c1.26-0.104,2.244-1.116,2.244-2.399v-1.218c0-1.354-1.081-2.442-2.432-2.442L21.72,36.301L21.72,36.301z M28.579,42.398h0.605
		c1.353,0,2.687,1.018,2.97,2.286l1.716,7.587c0.284,1.267-0.59,2.316-1.94,2.316h-0.615c-1.352,0-2.687-1.047-2.969-2.316
		l-1.715-7.587C26.343,43.42,27.224,42.398,28.579,42.398L28.579,42.398z M40.002,42.398c1.352,0,2.438,1.088,2.438,2.443v7.313
		c0,1.35-1.086,2.432-2.438,2.432c-1.351,0-2.438-1.085-2.438-2.432v-7.313C37.564,43.486,38.653,42.398,40.002,42.398
		L40.002,42.398z M50.822,42.398h0.61c1.352,0,2.227,1.018,1.938,2.286l-1.709,7.587c-0.289,1.267-1.62,2.316-2.976,2.316h-0.608
		c-1.353,0-2.228-1.047-1.939-2.316l1.712-7.587C48.136,43.42,49.471,42.398,50.822,42.398L50.822,42.398z"/>
	<path fill="#FFFFFE" d="M39.393,21.753c-1.484,0-2.701,1.028-2.971,2.433h-0.079L26.592,35.16h4.878l6.745-7.583
		c0.363,0.153,0.762,0.267,1.178,0.267c0.421,0,0.813-0.115,1.183-0.267l6.738,7.583h4.88l-9.755-10.975h-0.081
		C42.096,22.782,40.879,21.753,39.393,21.753L39.393,21.753z M21.72,35.979c-1.354,0-2.444,1.089-2.444,2.442v1.219
		c0,1.285,0.988,2.297,2.252,2.4l3.845,13.443c1.218,2.437,2.438,2.437,3.654,2.437h21.945c1.224,0,2.436,0,3.656-2.437
		l3.852-13.443c1.26-0.106,2.244-1.117,2.244-2.4v-1.219c0-1.353-1.081-2.442-2.432-2.442H21.72L21.72,35.979z M28.579,42.076h0.605
		c1.353,0,2.687,1.016,2.97,2.285l1.715,7.584c0.285,1.271-0.589,2.322-1.941,2.322h-0.614c-1.353,0-2.687-1.05-2.97-2.322
		l-1.714-7.584C26.343,43.097,27.224,42.076,28.579,42.076L28.579,42.076z M40.002,42.076c1.352,0,2.438,1.087,2.438,2.439v7.316
		c0,1.351-1.086,2.434-2.438,2.434c-1.351,0-2.438-1.088-2.438-2.434v-7.316C37.564,43.16,38.653,42.076,40.002,42.076
		L40.002,42.076z M50.822,42.076h0.61c1.352,0,2.227,1.016,1.938,2.285l-1.709,7.584c-0.289,1.271-1.62,2.322-2.976,2.322h-0.608
		c-1.353,0-2.228-1.05-1.939-2.322l1.712-7.584C48.136,43.097,49.471,42.076,50.822,42.076L50.822,42.076z"/>
</g>
</svg>
