<?xml version="1.0" encoding="utf-8"?>
<!-- Generator: Adobe Illustrator 15.0.2, SVG Export Plug-In . SVG Version: 6.00 Build 0)  -->
<!DOCTYPE svg PUBLIC "-//W3C//DTD SVG 1.1//EN" "http://www.w3.org/Graphics/SVG/1.1/DTD/svg11.dtd">
<svg version="1.1" id="Calque_1" xmlns="http://www.w3.org/2000/svg" xmlns:xlink="http://www.w3.org/1999/xlink" x="0px" y="0px"
	 width="80px" height="80px" viewBox="0 0 80 80" enable-background="new 0 0 80 80" xml:space="preserve">
<g>
	
		<linearGradient id="SVGID_1_" gradientUnits="userSpaceOnUse" x1="3041.1699" y1="-2359.8682" x2="3041.1699" y2="-2287.3682" gradientTransform="matrix(1 0 0 -1 -3004.9199 -2283.6182)">
		<stop  offset="0" style="stop-color:#E8C6B0"/>
		<stop  offset="1" style="stop-color:#EEEBE8"/>
	</linearGradient>
	<circle fill="url(#SVGID_1_)" cx="36.25" cy="40" r="36.25"/>
	<path fill="#E8C6B0" d="M36.25,4.656c19.489,0,35.344,15.855,35.344,35.344c0,19.489-15.854,35.344-35.344,35.344
		C16.761,75.344,0.906,59.489,0.906,40C0.906,20.511,16.761,4.656,36.25,4.656 M36.25,3.75C16.23,3.75,0,19.979,0,40
		c0,20.02,16.23,36.25,36.25,36.25C56.27,76.25,72.5,60.02,72.5,40C72.5,19.979,56.27,3.75,36.25,3.75L36.25,3.75z"/>
</g>
<g>
	<path d="M35.516,18.342c-1.793,0-3.261,1.241-3.589,2.939h-0.095L20.049,34.544h5.892l8.15-9.164
		c0.44,0.187,0.922,0.325,1.425,0.325c0.509,0,0.984-0.139,1.428-0.325l8.143,9.164h5.898L39.195,21.28h-0.094
		C38.783,19.583,37.313,18.342,35.516,18.342L35.516,18.342z M14.16,35.529c-1.634,0-2.952,1.316-2.952,2.95v1.473
		c0,1.554,1.195,2.777,2.72,2.901l4.646,16.249c1.474,2.949,2.949,2.949,4.417,2.949H49.51c1.478,0,2.941,0,4.418-2.949
		l4.654-16.249c1.519-0.127,2.709-1.347,2.709-2.901v-1.473c0-1.634-1.307-2.95-2.94-2.95H14.16L14.16,35.529z M22.448,42.897h0.733
		c1.634,0,3.245,1.23,3.589,2.76l2.073,9.167c0.344,1.535-0.714,2.802-2.346,2.802h-0.742c-1.633,0-3.245-1.264-3.588-2.802
		l-2.073-9.167C19.748,44.128,20.812,42.897,22.448,42.897L22.448,42.897z M36.255,42.897c1.632,0,2.942,1.315,2.942,2.95v8.838
		c0,1.632-1.308,2.94-2.942,2.94s-2.95-1.309-2.95-2.94v-8.838C33.306,44.213,34.622,42.897,36.255,42.897L36.255,42.897z
		 M49.327,42.897h0.737c1.633,0,2.691,1.23,2.344,2.76l-2.07,9.167c-0.347,1.535-1.954,2.802-3.59,2.802H46.01
		c-1.633,0-2.69-1.264-2.344-2.802l2.07-9.167C46.081,44.128,47.694,42.897,49.327,42.897L49.327,42.897z"/>
	<path fill="#FFFFFE" d="M35.516,17.948c-1.793,0-3.261,1.243-3.589,2.941h-0.095L20.049,34.151h5.892l8.15-9.163
		c0.44,0.187,0.922,0.324,1.425,0.324c0.509,0,0.984-0.138,1.428-0.324l8.143,9.163h5.898l-11.79-13.263h-0.094
		C38.783,19.192,37.313,17.948,35.516,17.948L35.516,17.948z M14.16,35.14c-1.634,0-2.952,1.316-2.952,2.95v1.473
		c0,1.554,1.195,2.775,2.72,2.901l4.646,16.247c1.474,2.947,2.949,2.947,4.417,2.947H49.51c1.478,0,2.941,0,4.418-2.947
		l4.654-16.247c1.519-0.128,2.709-1.347,2.709-2.901V38.09c0-1.634-1.307-2.95-2.94-2.95H14.16L14.16,35.14z M22.448,42.506h0.733
		c1.634,0,3.245,1.228,3.588,2.76l2.073,9.165c0.344,1.537-0.714,2.806-2.346,2.806h-0.741c-1.633,0-3.245-1.268-3.588-2.806
		l-2.073-9.165C19.748,43.736,20.812,42.506,22.448,42.506L22.448,42.506z M36.255,42.506c1.632,0,2.942,1.313,2.942,2.949v8.84
		c0,1.631-1.308,2.941-2.942,2.941s-2.95-1.311-2.95-2.941v-8.84C33.306,43.819,34.622,42.506,36.255,42.506L36.255,42.506z
		 M49.327,42.506h0.737c1.633,0,2.691,1.228,2.344,2.76l-2.07,9.165c-0.347,1.537-1.954,2.806-3.59,2.806H46.01
		c-1.633,0-2.69-1.268-2.344-2.806l2.07-9.165C46.081,43.736,47.694,42.506,49.327,42.506L49.327,42.506z"/>
</g>
</svg>
