<?xml version="1.0" encoding="utf-8"?>
<!-- Generator: Adobe Illustrator 15.0.2, SVG Export Plug-In . SVG Version: 6.00 Build 0)  -->
<!DOCTYPE svg PUBLIC "-//W3C//DTD SVG 1.1//EN" "http://www.w3.org/Graphics/SVG/1.1/DTD/svg11.dtd">
<svg version="1.1" id="Calque_1" xmlns="http://www.w3.org/2000/svg" xmlns:xlink="http://www.w3.org/1999/xlink" x="0px" y="0px"
	 width="48px" height="36px" viewBox="0 0 48 36" enable-background="new 0 0 48 36" xml:space="preserve">
<g>
	<path fill="#EEEBE8" d="M41,15H7c-1.657,0-3,1.343-3,3c0,1.656,1.343,3,3,3h34c1.656,0,3-1.344,3-3C44,16.343,42.656,15,41,15z"/>
	<path opacity="0.35" enable-background="new    " d="M44,18c0,1.656-1.344,2-3,2H7c-1.657,0-3-0.344-3-2c0,1.656,1.343,3,3,3h34
		C42.656,21,44,19.656,44,18z"/>
	<path opacity="0.5" fill="#FFFFFE" enable-background="new    " d="M41,15H7c-1.657,0-3,1.344-3,3c0-1.656,1.343-2,3-2h34
		c1.656,0,3,0.344,3,2C44,16.344,42.656,15,41,15z"/>
</g>
</svg>
