<?xml version="1.0" encoding="utf-8"?>
<!-- Generator: Adobe Illustrator 15.0.0, SVG Export Plug-In . SVG Version: 6.00 Build 0)  -->
<!DOCTYPE svg PUBLIC "-//W3C//DTD SVG 1.1//EN" "http://www.w3.org/Graphics/SVG/1.1/DTD/svg11.dtd">
<svg version="1.1" id="Calque_1" xmlns="http://www.w3.org/2000/svg" xmlns:xlink="http://www.w3.org/1999/xlink" x="0px" y="0px"
	 width="160px" height="24px" viewBox="0 0 160 24" enable-background="new 0 0 160 24" xml:space="preserve">
<rect x="80.501" y="0.5" fill="#D3117E" width="78.002" height="23.5"/>
<linearGradient id="SVGID_1_" gradientUnits="userSpaceOnUse" x1="119.5" y1="24" x2="119.5" y2="4.882813e-004">
	<stop  offset="0" style="stop-color:#C0C0C0;stop-opacity:0"/>
	<stop  offset="1" style="stop-color:#C0C0C0"/>
</linearGradient>
<path fill="url(#SVGID_1_)" d="M80.506,23.478V0.522h77.988v22.958L80.506,23.478 M80,24h79V0H80V24L80,24z"/>
<rect x="0.505" y="0.522" fill="#EEEBE8" width="77.745" height="23.478"/>
<linearGradient id="SVGID_2_" gradientUnits="userSpaceOnUse" x1="39.3921" y1="24" x2="39.3921" y2="4.882813e-004">
	<stop  offset="0" style="stop-color:#C0C0C0;stop-opacity:0"/>
	<stop  offset="1" style="stop-color:#C0C0C0"/>
</linearGradient>
<path fill="url(#SVGID_2_)" d="M0.505,23.478V0.522h77.774v22.958L0.505,23.478 M0,24h78.784V0H0V24L0,24z"/>
<linearGradient id="SVGID_3_" gradientUnits="userSpaceOnUse" x1="119.5322" y1="24.084" x2="119.5322" y2="0.5005">
	<stop  offset="0" style="stop-color:#FFFFFE;stop-opacity:0"/>
	<stop  offset="1" style="stop-color:#FFFFFE;stop-opacity:0.45"/>
</linearGradient>
<rect x="80.532" y="0.5" fill="url(#SVGID_3_)" width="78" height="23.584"/>
</svg>
